<svg xmlns="http://www.w3.org/2000/svg" xmlns:xlink="http://www.w3.org/1999/xlink" width="17" height="20" viewBox="0 0 17 20">
  <defs>
    <style>
      .cls-1 {
        fill: #ebebeb;
        fill-rule: evenodd;
        filter: url(#filter);
      }
    </style>
    <filter id="filter" x="1477" y="18" width="17" height="20" filterUnits="userSpaceOnUse">
      <feGaussianBlur result="blur" stdDeviation="1.732" in="SourceAlpha"/>
      <feFlood result="flood" flood-opacity="0.23"/>
      <feComposite result="composite" operator="out" in2="blur"/>
      <feOffset result="offset" dx="0.5" dy="0.866"/>
      <feComposite result="composite-2" operator="in" in2="SourceAlpha"/>
      <feBlend result="blend" mode="multiply" in2="SourceGraphic"/>
    </filter>
  </defs>
  <path id="icon_bell" data-name="icon bell" class="cls-1" d="M1493.47,32.094a5.553,5.553,0,0,1-2.02-4.271V25.5a5.875,5.875,0,0,0-5.1-5.767v-0.9a0.85,0.85,0,0,0-1.7,0v0.9a5.875,5.875,0,0,0-5.1,5.767v2.323a5.553,5.553,0,0,1-2.03,4.278,1.446,1.446,0,0,0-.52,1.107,1.477,1.477,0,0,0,1.49,1.459h14.02a1.477,1.477,0,0,0,1.49-1.459A1.447,1.447,0,0,0,1493.47,32.094ZM1485.5,38a3.169,3.169,0,0,0,3.12-2.5h-6.24A3.169,3.169,0,0,0,1485.5,38Z" transform="translate(-1477 -18)"/>
</svg>
