<?xml version="1.0" encoding="utf-8"?>
<!-- Svg Vector Icons : http://www.onlinewebfonts.com/icon -->
<!DOCTYPE svg PUBLIC "-//W3C//DTD SVG 1.1//EN" "http://www.w3.org/Graphics/SVG/1.1/DTD/svg11.dtd">
<svg version="1.1" xmlns="http://www.w3.org/2000/svg" xmlns:xlink="http://www.w3.org/1999/xlink" x="0px" y="0px" viewBox="0 0 1000 1000" enable-background="new 0 0 1000 1000" xml:space="preserve">
<g transform="translate(0.000000,502.000000) scale(0.100000,-0.100000)" fill="#ffffff"><path d="M8168.8,4880.4c-59.8-15.9-153.4-51.8-209.1-81.7c-77.7-41.8-890.3-840.5-3567.3-3515.5L926.6-2178.5L512.3-3419.4C285.2-4100.6,100-4680.2,100-4704.1c0-73.7,37.8-123.5,113.5-155.4c67.7-29.9,85.6-23.9,1326.5,390.4l1258.8,420.3L6238.7-618.9C8216.6,1355,9708.5,2856.8,9748.3,2916.5c197.2,296.8,203.2,721,11.9,1019.8c-31.9,49.8-221.1,253-422.3,450.2c-378.4,376.5-468.1,440.2-683.2,498C8527.3,4920.3,8306.2,4918.3,8168.8,4880.4z M8636.9,4500c81.7-25.9,153.4-85.6,442.2-372.5c410.3-404.3,450.2-466.1,452.1-689.2c0-219.1-41.8-292.8-326.7-583.6l-241-243L8282.3,3295l-683.2,683.2l233,227.1c274.9,272.9,374.5,328.6,575.6,328.6C8479.5,4533.9,8583.1,4519.9,8636.9,4500z M8027.4,3030.1l667.3-667.3l-139.4-139.4L8415.8,2084l-677.2,677.2l-677.2,677.2l129.5,129.5c69.7,71.7,137.5,129.5,149.4,129.5C7350.2,3697.3,7660.9,3396.5,8027.4,3030.1z M7085.3,2896.6l264.9-264.9L4786.7,68.2L2221.3-2497.2h-328.6H1562l-107.6,109.5l-109.5,109.6L4063.7,440.7c1495.8,1495.8,2726.8,2718.8,2738.7,2718.8C6812.4,3159.5,6939.9,3040,7085.3,2896.6z M7888,2093.9l268.9-268.9L5438-893.8C3942.2-2389.6,2711.3-3612.6,2703.3-3612.6c-8,0-59.8,43.8-115.5,97.6l-97.6,95.6v336.6v336.6L5043.7-192.7c1406.2,1406.2,2559.5,2555.5,2565.4,2555.5C7615.1,2362.8,7740.6,2241.3,7888,2093.9z M1761.2-2855.7h350.6v-330.6c0-203.2,8-346.6,21.9-372.5c12-23.9,67.7-89.6,123.5-147.4c71.7-75.7,93.6-107.5,71.7-115.5c-141.4-53.8-750.9-249-774.8-249c-15.9,0-173.3,141.4-346.6,316.7l-314.7,316.7l135.4,408.3l135.4,410.3l123.5-117.5l123.5-119.5H1761.2z M1125.8-4210.2c-13.9-21.9-523.8-189.2-535.8-177.3c-6,6,29.9,133.5,79.7,284.8l91.6,274.9L948.5-4013C1050.1-4114.6,1129.8-4204.2,1125.8-4210.2z"/></g>
</svg>
