<svg fill="#ffffff" xmlns="http://www.w3.org/2000/svg" width="24" height="20" viewBox="0 0 24 20">
  <path d="M1402.48,21.436a4.308,4.308,0,0,1,2.03,3.207,3.543,3.543,0,0,0,1.49.33A3.485,3.485,0,1,0,1402.48,21.436Zm-2.3,7.134a3.485,3.485,0,1,0-3.52-3.484A3.505,3.505,0,0,0,1400.18,28.57Zm1.49,0.238h-2.99a4.487,4.487,0,0,0-4.5,4.462v3.673l0.26,0.078a20.682,20.682,0,0,0,6.12.978,12.727,12.727,0,0,0,5.36-.995l0.23-.118h0.03V33.269A4.5,4.5,0,0,0,1401.67,28.808Zm5.82-3.6h-2.96a4.27,4.27,0,0,1-1.34,2.991,5.312,5.312,0,0,1,3.83,5.073v1.114a12.231,12.231,0,0,0,4.72-.982l0.23-.118H1412V29.672A4.489,4.489,0,0,0,1407.49,25.21ZM1394,24.973a3.5,3.5,0,0,0,1.87-.538,4.3,4.3,0,0,1,1.64-2.75c0-.065.01-0.13,0.01-0.2A3.52,3.52,0,1,0,1394,24.973Zm3.16,3.228a4.279,4.279,0,0,1-1.34-2.975c-0.11-.008-0.22-0.017-0.33-0.017h-2.98a4.489,4.489,0,0,0-4.51,4.461v3.616l0.01,0.056,0.25,0.079a21.3,21.3,0,0,0,5.08.944V33.275A5.3,5.3,0,0,1,1397.16,28.2Z" transform="translate(-1388 -18)"/>
</svg>
