<svg fill="#ffffff" xmlns="http://www.w3.org/2000/svg" width="21.03" height="20" viewBox="0 0 21.03 20">
  <path d="M1331.65,26.889l-9.43-8.6a1.07,1.07,0,0,0-1.45,0l-9.42,8.6a1.078,1.078,0,0,0,.73,1.876h1.5v8.616a0.621,0.621,0,0,0,.62.619h5.16a0.614,0.614,0,0,0,.62-0.619V32.15h3.04v5.231a0.612,0.612,0,0,0,.61.619h5.17a0.621,0.621,0,0,0,.62-0.619V28.765h1.5A1.078,1.078,0,0,0,1331.65,26.889Zm-2.4-7.648h-4.14l4.76,4.34V19.86A0.614,0.614,0,0,0,1329.25,19.241Z" transform="translate(-1311 -18)"/>
</svg>
