<svg fill="#ffffff" xmlns="http://www.w3.org/2000/svg" width="25" height="19.969" viewBox="0 0 25 19.969">
  <path d="M1455.9,22.293h-5.66V29.46a1.917,1.917,0,0,1-1.93,1.893h-8.72v2.4a1.089,1.089,0,0,0,1.1,1.081h8.57l3.58,2.933c0.46,0.383.71,0.225,0.56-.351l-0.7-2.564c0-.006-0.01-0.011-0.01-0.017h3.21a1.089,1.089,0,0,0,1.1-1.081V23.374A1.089,1.089,0,0,0,1455.9,22.293Zm-22.8,8.248h1.69a0.017,0.017,0,0,0-.01.017l-0.7,2.564c-0.1.363-.04,0.56,0.14,0.56a0.729,0.729,0,0,0,.42-0.209l3.58-2.933h10.09a1.089,1.089,0,0,0,1.1-1.081V19.081a1.089,1.089,0,0,0-1.1-1.081H1433.1a1.089,1.089,0,0,0-1.1,1.081V29.46A1.089,1.089,0,0,0,1433.1,30.541Z" transform="translate(-1432 -18)"/>
</svg>
