<?xml version="1.0" encoding="UTF-8" standalone="no"?>
<svg
   xmlns:dc="http://purl.org/dc/elements/1.1/"
   xmlns:cc="http://creativecommons.org/ns#"
   xmlns:rdf="http://www.w3.org/1999/02/22-rdf-syntax-ns#"
   xmlns:svg="http://www.w3.org/2000/svg"
   xmlns="http://www.w3.org/2000/svg"
   xmlns:xlink="http://www.w3.org/1999/xlink"
   xmlns:sodipodi="http://sodipodi.sourceforge.net/DTD/sodipodi-0.dtd"
   xmlns:inkscape="http://www.inkscape.org/namespaces/inkscape"
   width="22"
   height="30"
   viewBox="0 0 22 30">
  <g
     transform="translate(-14.067797,-10)"
     style="fill: #ffffff">
      <g
         inkscape:label="Clip">
        <path d="m 18,23 h -2 v -4 c 0,-5 4,-9 9,-9 4.5,0 8.4,3.4 8.9,7.9 l -2,0.2 C 31.5,14.6 28.5,12 25,12 c -3.9,0 -7,3.1 -7,7 z" />
        <path d="M 33,40 H 17 c -1.7,0 -3,-1.3 -3,-3 V 25 c 0,-1.7 1.3,-3 3,-3 h 16 c 1.7,0 3,1.3 3,3 v 12 c 0,1.7 -1.3,3 -3,3 z M 17,24 c -0.6,0 -1,0.4 -1,1 v 12 c 0,0.6 0.4,1 1,1 h 16 c 0.6,0 1,-0.4 1,-1 V 25 c 0,-0.6 -0.4,-1 -1,-1 z" />
        <circle
           r="2"
           cy="28"
           cx="25" />
        <path
           inkscape:connector-curvature="0"
           d="m 25.5,28 h -1 l -1,6 h 3 z" />
      </g>
  </g>
</svg>
